<svg version="1.2" xmlns="http://www.w3.org/2000/svg" viewBox="0 0 110 116" width="110" height="116">
	<title>Logo_Biglietto_Claudia_Gizzi-svg</title>
	<style>
		.s0 { fill: #f8afac } 
		.s1 { fill: #f09491 } 
		.s2 { fill: #00b4c4 } 
		.s3 { fill: #636466 } 
		.s4 { fill: #000000 } 
	</style>
	<g id="Layer">
		<path id="Layer" class="s0" d="m92.1 72.4c-0.6 0-1.3-0.7-1.9-2-0.5-1.2-1.3-3-2.3-5.3-0.2-0.5-0.5-1.1-0.8-1.7-0.3-0.6-0.6-1.2-1-1.8-0.6-1.3-1.5-2.5-2.4-3.9-1.9-2.6-4.4-5.3-7.6-7.7-3.2-2.3-7.1-4.3-11.5-5.3-4.4-1-9.3-1.1-14.2 0.2-2.4 0.6-4.8 1.6-7.1 2.8-2.2 1.3-4.4 2.9-6.3 4.8-1.8 1.9-3.5 4.1-4.9 6.5-1.3 2.4-2.2 5.1-2.8 7.8-0.5 2.8-0.6 5.6-0.5 8.3 0.3 2.7 0.9 5.4 1.9 7.9 1.1 2.4 2.3 4.8 3.9 6.8 1.6 2 3.3 3.9 5.4 5.4l0.7 0.6 0.8 0.5c0.5 0.3 1 0.7 1.5 1 0.5 0.3 1.1 0.6 1.6 0.9l0.8 0.4 0.8 0.3c0.5 0.2 1.1 0.5 1.6 0.7 0.5 0.2 1.1 0.3 1.7 0.5 1.1 0.4 2.3 0.6 3.4 0.8 4.5 0.9 8.9 0.6 12.9-0.3 3.9-0.9 7.3-2.4 10.2-4.2 2.8-1.7 5.1-3.6 6.8-5.3 3.5-3.4 5.3-5.8 6.2-5.4 0.8 0.3 0.8 3.6-1.8 8.6-1.3 2.5-3.3 5.4-6.4 8.3-3 2.9-7 5.6-12 7.5-5 1.9-11 3-17.4 2.4-1.6-0.2-3.3-0.3-4.9-0.7-0.8-0.2-1.6-0.3-2.5-0.6-0.8-0.3-1.6-0.5-2.4-0.8l-1.2-0.4-1.2-0.5c-0.8-0.3-1.6-0.7-2.4-1.1-0.8-0.4-1.6-0.9-2.4-1.3l-1.2-0.7-1.1-0.8c-3.1-2-5.8-4.6-8.3-7.5-2.5-2.9-4.5-6.3-6.2-10-1.6-3.7-2.6-7.7-3.1-11.8-0.4-4.1-0.2-8.4 0.6-12.6 0.9-4.2 2.4-8.2 4.4-11.8 2.1-3.6 4.6-6.9 7.5-9.7 2.9-2.8 6.2-5.1 9.6-6.9 3.5-1.7 7.1-3.1 10.7-3.8 7.3-1.5 14.4-0.9 20.6 1 6.2 1.9 11.4 5.2 15.2 9 3.9 3.7 6.6 7.8 8.3 11.6 0.8 1.9 1.5 3.7 1.8 5.5 0.2 0.9 0.4 1.7 0.5 2.5 0.1 0.8 0.2 1.5 0.2 2.3 0.2 1.4 0 2.7 0 3.8 0 1.1-0.3 2-0.5 2.7-0.2 1.8-0.7 2.5-1.3 2.5z"/>
		<path id="Layer" class="s1" d="m85.3 96c1.2-1.2 2.2-2.3 3.1-3.4-0.2 0.6-0.5 1.3-0.9 2-1.3 2.5-3.4 5.4-6.4 8.3-3 2.8-7 5.5-12 7.5-5 1.9-11 3-17.4 2.4-1.6-0.2-3.3-0.3-4.9-0.7-0.9-0.2-1.7-0.4-2.5-0.6-0.8-0.3-1.6-0.5-2.4-0.8l-1.2-0.4-1.2-0.5c-0.8-0.4-1.6-0.7-2.4-1.1-0.8-0.4-1.6-0.9-2.4-1.3l-1.2-0.7-1.1-0.8c-3-2-5.8-4.6-8.3-7.5-2.5-2.9-4.5-6.3-6.2-10-1.6-3.7-2.6-7.7-3.1-11.8q-0.6-6.3 0.6-12.6c0.9-4.1 2.4-8.1 4.4-11.8q1.4-2.4 3-4.5c-1.4 3-2.5 6.1-3.2 9.4-0.8 4.2-1 8.5-0.6 12.6 0.5 4.1 1.5 8.1 3.1 11.8 1.7 3.7 3.7 7.1 6.2 10 2.5 2.9 5.2 5.5 8.3 7.5l1.1 0.8 1.2 0.7c0.8 0.4 1.6 0.9 2.4 1.3 0.8 0.4 1.6 0.8 2.4 1.1l1.2 0.5 1.2 0.4c0.8 0.3 1.6 0.5 2.4 0.8 0.9 0.3 1.7 0.4 2.5 0.6 1.6 0.4 3.3 0.5 4.9 0.7 6.4 0.6 12.4-0.5 17.4-2.4 5-1.9 9.1-4.7 12-7.5z"/>
		<path id="Layer" class="s1" d="m91.9 58.2q1.4 3 2.1 4.8c0.1 0.2 0.1 0.5 0.1 0.7 0.2 1.4 0 2.7 0 3.8 0 1-0.3 2-0.5 2.7-0.5 1.5-1 2.2-1.6 2.2-0.6 0-1.3-0.7-1.9-2-0.5-1.3-1.3-3-2.3-5.3-0.3-0.5-0.5-1.1-0.8-1.7-0.3-0.6-0.7-1.2-1-1.8-0.6-1.3-1.5-2.5-2.4-3.9-1.9-2.7-4.4-5.4-7.6-7.7-3.2-2.4-7.1-4.3-11.5-5.3-4.4-0.9-9.4-1.1-14.2 0.2-2.5 0.6-4.8 1.6-7.1 2.8-2.3 1.4-4.4 2.9-6.3 4.8q-0.9 1.1-1.8 2.1c0.4-0.8 0.8-1.7 1.2-2.5 1.4-2.4 3.1-4.6 4.9-6.5 1.9-1.9 4.1-3.5 6.3-4.8 2.3-1.2 4.7-2.2 7.1-2.8 4.9-1.3 9.8-1.2 14.2-0.2 4.4 1 8.3 3 11.5 5.3 3.2 2.4 5.7 5.1 7.6 7.7 0.9 1.4 1.8 2.6 2.4 3.9 0.4 0.6 0.7 1.2 1 1.8 0.2 0.6 0.5 1.2 0.6 1.7z"/>
		<path id="Layer" class="s0" d="m90.1 77.5c-1.3 0-2.4-0.9-3.4-2.2-1.1-1.3-2.2-3.1-3.6-4.9-1.4-1.8-3.3-3.8-5.5-5.4-0.5-0.4-1.2-0.8-1.8-1.2-0.7-0.3-1.3-0.7-2-1-1.4-0.6-2.9-1-4.4-1.3-6.3-1.1-12.2 0.8-16.3 3.4-4.2 2.5-6.8 5.4-8.7 4.7-0.9-0.3-1.5-1.5-1.5-3.6 0-2 0.8-4.9 2.8-8 2-3.1 5.3-6.3 9.9-8.5 4.6-2.2 10.4-3.2 16.3-2.2 2.9 0.5 5.7 1.4 8.2 2.7 1.3 0.6 2.4 1.4 3.5 2.1 1.1 0.8 2.1 1.6 3 2.5 3.6 3.6 6.9 6.7 7.8 10.3 0.3 3.5-0.5 7.5-1.2 9.5-0.8 2.2-1.9 3.1-3.1 3.1z"/>
		<path id="Layer" class="s0" d="m67.5 15.5c0 0.8-0.1 1.5-0.2 2.2-0.1 0.7-0.4 1.5-0.7 2.2-0.3 0.7-0.6 1.4-1.1 2-0.4 0.6-0.9 1.2-1.4 1.7-0.5 0.5-1.1 1-1.8 1.4-0.6 0.4-1.3 0.8-2 1.1-0.7 0.3-1.4 0.5-2.2 0.7-0.7 0.1-1.5 0.2-2.3 0.2-0.8 0-1.5-0.1-2.3-0.2-0.7-0.1-1.5-0.4-2.2-0.7-0.7-0.3-1.4-0.6-2-1.1-0.6-0.4-1.2-0.9-1.8-1.4-0.5-0.5-1-1.1-1.4-1.7-0.4-0.6-0.8-1.3-1.1-2-0.3-0.7-0.5-1.4-0.7-2.2-0.1-0.7-0.2-1.5-0.2-2.2 0-0.7 0.1-1.5 0.2-2.2 0.1-0.7 0.4-1.5 0.7-2.2 0.3-0.7 0.6-1.4 1.1-2 0.4-0.6 0.9-1.2 1.4-1.7 0.5-0.5 1.1-1 1.8-1.4 0.6-0.4 1.3-0.8 2-1.1 0.7-0.3 1.4-0.5 2.2-0.7 0.7-0.1 1.5-0.2 2.3-0.2 0.8 0 1.5 0.1 2.3 0.2 0.7 0.1 1.5 0.4 2.2 0.7 0.7 0.3 1.4 0.6 2 1.1 0.6 0.4 1.2 0.9 1.8 1.4 0.5 0.5 1 1.1 1.4 1.7 0.4 0.6 0.8 1.3 1.1 2 0.3 0.7 0.5 1.4 0.7 2.2 0.2 0.8 0.2 1.4 0.2 2.2z"/>
		<path id="Layer" class="s2" d="m59.6 95.8c-1.5 0-2.9-0.1-4.3-0.4-0.2 0-0.5-0.1-0.9-0.2-0.6-0.1-1.1-0.2-1.4-0.3-0.1 0-0.2-0.1-0.2-0.1q-0.4-0.1-0.9-0.3c-0.2-0.1-0.4-0.1-0.5-0.2l-1.4-0.6-0.5-0.2-0.5-0.3-1.4-0.7-1.3-0.9-0.5-0.3-0.4-0.3-1.3-1-1.1-1.1q-0.1-0.2-0.3-0.3c-0.1-0.1-0.2-0.2-0.4-0.4l-0.2-0.2c-0.2-0.2-0.4-0.5-0.6-0.7-0.1-0.1-0.2-0.2-0.2-0.2-0.1-0.1-0.2-0.2-0.2-0.3-1.1-1.4-2-3.1-2.9-5.2-0.7-1.7-1.1-3.7-1.4-5.9q-0.1-3.1 0.3-6 0.2 0.8 0.3 1.5c0.8 2.9 2.7 5.2 5.4 6.1 0.9 0.3 1.8 0.5 2.7 0.5 3.5 0 6-2.1 7.9-3.6l0.2-0.2c1.5-1.2 3.3-2.6 5.4-3.6 1.5-0.7 3.7-1.6 6.4-1.6 0.2 0 0.5 0 0.7 0 2.7 0.2 5.3 1.2 7.2 2.8 1.9 1.6 3.2 3.8 3.7 6.3 0 0.5 0.1 1 0.2 1.4 0.4 7.4-4.7 14.2-11.9 15.8-1.9 0.4-3.8 0.7-5.7 0.7z"/>
	</g>
	<g id="Layer">
		<path id="Layer" fill-rule="evenodd" class="s3" d="m-24 153q0-0.9 0.3-1.8c0.2-0.6 0.5-1 0.8-1.4 0.4-0.4 0.8-0.7 1.3-1 0.5-0.2 1.1-0.4 1.7-0.4 0.5 0 0.9 0.1 1.3 0.3 0.3 0.2 0.6 0.4 0.8 0.7 0.2 0.3 0.4 0.6 0.5 0.9 0.1 0.4 0.1 0.7 0.1 1.1 0 0.6-0.1 1.1-0.2 1.7-0.2 0.6-0.4 1.1-0.7 1.5-0.3 0.4-0.7 0.8-1.2 1.1-0.5 0.3-1.1 0.4-1.8 0.4-0.5 0-0.9-0.1-1.3-0.2-0.4-0.2-0.7-0.4-0.9-0.7-0.2-0.3-0.4-0.6-0.5-1-0.2-0.4-0.2-0.8-0.2-1.2zm1.1 0c0 0.4 0.1 0.7 0.2 1 0.1 0.3 0.2 0.6 0.4 0.8 0.2 0.2 0.4 0.4 0.6 0.5 0.2 0.1 0.5 0.2 0.8 0.2 0.5 0 0.9-0.1 1.3-0.4 0.3-0.3 0.6-0.6 0.8-1 0.2-0.4 0.4-0.8 0.4-1.3 0.1-0.5 0.1-1 0.1-1.4 0-0.4 0-0.7-0.1-1-0.1-0.3-0.2-0.5-0.4-0.8-0.2-0.3-0.4-0.4-0.6-0.5-0.2-0.1-0.5-0.2-0.8-0.2-0.5 0-0.9 0.1-1.2 0.4-0.3 0.3-0.6 0.6-0.9 1-0.3 0.4-0.4 0.8-0.5 1.3-0.1 0.5-0.1 1-0.1 1.4z"/>
		<path id="Layer" class="s3" d="m-14.3 154.7c0-0.2-0.1-0.3-0.1-0.4q-0.1-0.1-0.3-0.3c-0.1-0.1-0.3-0.2-0.4-0.3-0.2-0.1-0.3-0.2-0.4-0.4-0.1-0.2-0.2-0.3-0.3-0.5-0.1-0.2-0.1-0.4-0.1-0.6 0-0.2 0-0.5 0.1-0.7 0.1-0.2 0.2-0.3 0.4-0.5 0.2-0.2 0.4-0.2 0.6-0.3 0.2-0.1 0.5-0.1 0.8-0.1q0.3 0 0.6 0c0.2 0 0.4 0.1 0.6 0.2q0 0.1 0 0.3c0 0.1-0.1 0.2-0.1 0.3 0 0.1-0.1 0.2-0.2 0.3-0.1 0.1-0.1 0.1-0.2 0.2l-0.8-0.8c-0.1 0-0.3 0-0.4 0.1-0.1 0-0.2 0.1-0.3 0.1-0.1 0.1-0.2 0.1-0.2 0.2-0.1 0.1-0.1 0.2-0.1 0.4 0 0.2 0 0.3 0.1 0.5 0.1 0.1 0.2 0.2 0.3 0.4 0.1 0.1 0.3 0.2 0.4 0.3 0.2 0.1 0.3 0.2 0.4 0.4 0.1 0.2 0.2 0.3 0.3 0.5 0.1 0.2 0.1 0.4 0.1 0.6 0 0.3-0.1 0.5-0.2 0.7-0.1 0.2-0.3 0.4-0.5 0.5-0.2 0.1-0.4 0.2-0.7 0.3-0.3 0.1-0.5 0.1-0.8 0.1-0.3 0-0.6 0-0.8-0.1-0.2-0.1-0.4-0.1-0.6-0.2 0-0.2 0.1-0.4 0.1-0.5 0-0.2 0.2-0.3 0.3-0.5l0.9 0.9c0.1 0 0.3 0 0.4-0.1 0.1 0 0.3-0.1 0.4-0.2q0.2-0.2 0.3-0.3c0.1-0.1 0.4-0.4 0.4-0.5z"/>
		<path id="Layer" class="s3" d="m-11.9 150.9c0.1-0.1 0.3-0.2 0.4-0.2 0.2-0.1 0.3-0.1 0.5-0.2l0.2-0.8c0.1-0.1 0.2-0.1 0.3-0.2 0.1-0.1 0.3-0.1 0.4-0.2l0.2 0.1-0.3 1.2h1.3q0 0.2 0 0.3c0 0.1 0 0.2-0.1 0.3h-1.3l-0.7 3c0 0.1 0 0.2-0.1 0.3q0 0.2 0 0.3c0 0.2 0.1 0.3 0.2 0.4 0.1 0.1 0.2 0.1 0.3 0.1 0.2 0 0.4 0 0.6-0.1 0.2-0.1 0.4-0.1 0.6-0.2l0.1 0.2q-0.1 0.2-0.3 0.3c-0.1 0.1-0.3 0.2-0.4 0.3-0.2 0.1-0.3 0.1-0.5 0.2-0.2 0-0.3 0.1-0.5 0.1-0.3 0-0.5-0.1-0.7-0.2-0.2-0.1-0.3-0.4-0.3-0.6q0-0.1 0-0.3c0-0.1 0-0.2 0.1-0.4l0.7-3.3h-0.8z"/>
		<path id="Layer" fill-rule="evenodd" class="s3" d="m-4.8 155c-0.1 0.1-0.2 0.3-0.3 0.4-0.1 0.1-0.3 0.2-0.4 0.3-0.2 0.1-0.3 0.2-0.5 0.2-0.2 0.1-0.4 0.1-0.7 0.1-0.6 0-1-0.2-1.3-0.5-0.3-0.3-0.5-0.8-0.5-1.4 0-0.5 0.1-1 0.2-1.4q0.1-0.6 0.6-1.2c0.3-0.4 0.6-0.6 0.9-0.8q0.6-0.3 1.2-0.3 0.4 0 0.9 0.3c0.2 0.2 0.4 0.4 0.4 0.8 0 0.5-0.2 0.9-0.7 1.2q-0.8 0.5-2.4 0.6c0 0.1 0 0.2-0.1 0.3-0.1 0.1 0 0.2 0 0.3 0 0.4 0.1 0.8 0.3 1 0.2 0.3 0.5 0.4 0.9 0.4 0.1 0 0.3 0 0.4-0.1 0.1-0.1 0.3-0.1 0.4-0.2 0.1-0.1 0.2-0.1 0.3-0.2 0.1-0.1 0.2-0.1 0.2-0.2zm-1.1-4c-0.3 0-0.6 0.1-0.8 0.4-0.3 0.3-0.5 0.7-0.7 1.4 0.7 0 1.2-0.1 1.6-0.3q0.6-0.3 0.6-0.9c0-0.1 0-0.3-0.1-0.4-0.1-0.1-0.3-0.2-0.6-0.2z"/>
		<path id="Layer" fill-rule="evenodd" class="s3" d="m-3.6 154c0-0.4 0.1-0.8 0.2-1.2 0.1-0.4 0.3-0.8 0.5-1.1 0.2-0.3 0.5-0.6 0.9-0.8q0.6-0.3 1.2-0.3c0.5 0 1 0.2 1.2 0.5 0.3 0.3 0.4 0.8 0.4 1.5 0 0.5-0.1 0.9-0.2 1.3-0.1 0.4-0.3 0.8-0.6 1.1-0.2 0.3-0.5 0.6-0.9 0.8-0.4 0.2-0.7 0.3-1.1 0.3-0.5 0-1-0.2-1.3-0.5-0.1-0.4-0.3-0.9-0.3-1.6zm2.6-3c-0.3 0-0.6 0.1-0.8 0.3-0.2 0.2-0.4 0.5-0.5 0.8-0.1 0.3-0.2 0.7-0.3 1 0 0.4-0.1 0.7-0.1 1 0 0.4 0.1 0.7 0.3 1 0.2 0.3 0.4 0.4 0.7 0.4 0.2 0 0.5-0.1 0.7-0.3 0.2-0.2 0.4-0.4 0.5-0.7 0.1-0.3 0.2-0.6 0.3-1 0.1-0.4 0.1-0.8 0.1-1.2 0-0.4-0.1-0.7-0.2-1-0.1-0.3-0.4-0.3-0.7-0.3z"/>
		<path id="Layer" fill-rule="evenodd" class="s3" d="m2.4 157.5c0.2 0 0.5 0.1 0.7 0.3v0.3h-1.6l-0.1-0.1 0.5-2.1 1-4.6-0.6-0.1v-0.3c0.2-0.1 0.5-0.2 0.7-0.3 0.3-0.1 0.5-0.1 0.7-0.1l0.2 0.1-0.4 1.8c0.1-0.3 0.3-0.5 0.4-0.8 0.2-0.2 0.3-0.4 0.5-0.6 0.2-0.2 0.4-0.3 0.6-0.4 0.2-0.1 0.4-0.2 0.7-0.2 0.2 0 0.3 0 0.4 0.1 0.1 0.1 0.3 0.2 0.4 0.3 0.1 0.1 0.2 0.3 0.2 0.5 0.1 0.2 0.1 0.4 0.1 0.6 0 0.5-0.1 1.1-0.2 1.5-0.2 0.5-0.4 0.9-0.7 1.3-0.3 0.4-0.6 0.7-1 0.9q-0.6 0.3-1.2 0.3-0.1 0-0.3 0c-0.1 0-0.2 0-0.2 0-0.1 0-0.1 0-0.2-0.1-0.1 0-0.1-0.1-0.2-0.1zm2.7-6.3c-0.2 0-0.4 0.1-0.6 0.2-0.2 0.2-0.4 0.3-0.5 0.6-0.2 0.2-0.3 0.5-0.4 0.7-0.1 0.2-0.2 0.5-0.3 0.7l-0.4 2c0.1 0.1 0.2 0.1 0.3 0.2 0.1 0 0.3 0.1 0.5 0.1 0.3 0 0.5-0.1 0.8-0.3 0.2-0.2 0.5-0.5 0.7-0.8 0.2-0.3 0.3-0.7 0.4-1.1 0.1-0.4 0.2-0.8 0.2-1.2 0-0.3-0.1-0.6-0.2-0.8-0.1-0.2-0.3-0.3-0.5-0.3z"/>
		<path id="Layer" fill-rule="evenodd" class="s3" d="m10.8 153.9c-0.1 0.3-0.2 0.5-0.3 0.8-0.1 0.3-0.3 0.5-0.5 0.7-0.2 0.2-0.4 0.4-0.6 0.5-0.2 0.1-0.4 0.2-0.7 0.2-0.7 0-1.1-0.5-1.1-1.6 0-0.5 0.1-1 0.2-1.4q0.2-0.8 0.6-1.2c0.3-0.4 0.6-0.7 1-0.9 0.4-0.2 0.8-0.3 1.3-0.3 0.2 0 0.3 0 0.4 0 0.1 0 0.2 0.1 0.4 0.1 0.3-0.1 0.6-0.2 0.9-0.2l-0.9 4.8h0.8v0.3c-0.1 0.1-0.3 0.2-0.5 0.3-0.2 0.1-0.4 0.1-0.6 0.1-0.2 0-0.3 0-0.4-0.1-0.1-0.1-0.1-0.2-0.1-0.3 0-0.1 0-0.3 0.1-0.6 0.1-0.3 0-0.8 0-1.2zm-1.6 1.5q0.3 0 0.6-0.3c0.2-0.2 0.4-0.4 0.5-0.6 0.2-0.3 0.3-0.5 0.5-0.8 0.1-0.3 0.2-0.5 0.3-0.7l0.3-1.8c-0.1-0.1-0.2-0.1-0.3-0.1-0.1 0-0.2 0-0.4 0q-0.5 0-0.9 0.3c-0.3 0.2-0.5 0.5-0.7 0.8-0.2 0.3-0.3 0.7-0.4 1-0.1 0.3-0.2 0.8-0.2 1.1 0 0.4 0 0.6 0.1 0.8 0.2 0.2 0.3 0.3 0.6 0.3z"/>
		<path id="Layer" class="s3" d="m13.4 150.9c0.1-0.1 0.3-0.2 0.4-0.2 0.2-0.1 0.3-0.1 0.5-0.2l0.2-0.8c0.1-0.1 0.2-0.1 0.3-0.2 0.1-0.1 0.3-0.1 0.4-0.2l0.2 0.1-0.3 1.2h1.3q0 0.2 0 0.3c0 0.1 0 0.2-0.1 0.3h-1.3l-0.7 3c0 0.1 0 0.2-0.1 0.3q0 0.2 0 0.3c0 0.2 0.1 0.3 0.2 0.4 0.1 0.1 0.2 0.1 0.3 0.1 0.2 0 0.4 0 0.6-0.1 0.2-0.1 0.4-0.1 0.6-0.2l0.1 0.2q-0.2 0.2-0.3 0.3c-0.1 0.1-0.3 0.2-0.4 0.3-0.2 0.1-0.3 0.1-0.5 0.2-0.2 0-0.3 0.1-0.5 0.1-0.3 0-0.5-0.1-0.7-0.2-0.2-0.1-0.3-0.4-0.3-0.6q0-0.1 0-0.3c0-0.1 0-0.2 0.1-0.4l0.7-3.3h-0.8z"/>
		<path id="Layer" fill-rule="evenodd" class="s3" d="m20.1 153.9c-0.1 0.3-0.2 0.5-0.3 0.8-0.1 0.3-0.3 0.5-0.5 0.7-0.2 0.2-0.4 0.4-0.6 0.5-0.2 0.1-0.4 0.2-0.7 0.2-0.7 0-1.1-0.5-1.1-1.6 0-0.5 0.1-1 0.2-1.4q0.1-0.8 0.6-1.2c0.3-0.4 0.6-0.7 1-0.9 0.4-0.2 0.8-0.3 1.3-0.3 0.2 0 0.3 0 0.4 0 0.1 0 0.2 0.1 0.4 0.1 0.3-0.1 0.6-0.2 0.9-0.2l-0.9 4.8h0.8v0.3c-0.1 0.1-0.3 0.2-0.5 0.3-0.2 0.1-0.4 0.1-0.6 0.1-0.2 0-0.3 0-0.4-0.1-0.1-0.1-0.1-0.2-0.1-0.3 0-0.1 0-0.3 0.1-0.6 0.1-0.3 0-0.8 0-1.2zm-1.6 1.5q0.3 0 0.6-0.3c0.2-0.2 0.4-0.4 0.5-0.6 0.2-0.3 0.3-0.5 0.5-0.8 0.1-0.3 0.2-0.5 0.3-0.7l0.3-1.8c-0.1-0.1-0.2-0.1-0.3-0.1-0.1 0-0.2 0-0.4 0q-0.4 0-0.9 0.3c-0.3 0.2-0.5 0.5-0.7 0.8-0.2 0.3-0.3 0.7-0.4 1-0.1 0.3-0.2 0.8-0.2 1.1 0 0.4 0 0.6 0.1 0.8q0.3 0.3 0.6 0.3z"/>
		<path id="Layer" fill-rule="evenodd" class="s3" d="m24.6 155.9l0.1-0.3q0.5-0.2 0.9-0.3l1.3-6.2c-0.2 0-0.3-0.1-0.4-0.1-0.1 0-0.3-0.1-0.4-0.1l0.1-0.3c0.1 0 1.4 0 1.5 0 0.2 0 0.3 0 0.5 0 0.2 0 0.3 0 0.5 0 0.2 0 0.3 0 0.4 0 0.6 0 1 0.1 1.4 0.2 0.4 0.1 0.7 0.3 1 0.5 0.2 0.2 0.4 0.5 0.5 0.8 0.1 0.3 0.2 0.6 0.2 1 0 0.4 0 0.7-0.1 1.1-0.1 0.4-0.2 0.8-0.3 1.1-0.1 0.4-0.3 0.7-0.6 1q-0.3 0.4-0.9 0.9c-0.4 0.2-0.8 0.4-1.3 0.6-0.5 0.1-1 0.2-1.7 0.2-0.1 0-0.2 0-0.4 0-0.1 0-0.3 0-0.5 0-0.2 0-0.3 0-0.5 0-0.2 0-0.3 0-0.4 0h-0.9zm4.2-6.9q-0.3 0-0.6 0c-0.2 0-0.3 0-0.4 0l-1.3 6.4q0.2 0 0.3 0 0.2 0 0.3 0 0.2 0 0.3 0c0.1 0 0.1 0 0.2 0 0.7 0 1.2-0.1 1.6-0.4 0.4-0.3 0.8-0.6 1.1-1 0.3-0.4 0.5-0.9 0.6-1.4 0.1-0.5 0.2-1.1 0.2-1.6 0-0.3 0-0.5-0.1-0.8-0.1-0.3-0.2-0.4-0.3-0.6-0.2-0.2-0.4-0.3-0.7-0.4-0.4-0.1-0.7-0.2-1.2-0.2z"/>
		<path id="Layer" class="s3" d="m32.6 155.3c0-0.2 0.1-0.4 0.2-0.5 0.1-0.1 0.3-0.2 0.5-0.2 0.2 0 0.4 0.1 0.5 0.2 0.1 0.1 0.2 0.3 0.2 0.5 0 0.2-0.1 0.4-0.2 0.5-0.1 0.1-0.3 0.2-0.5 0.2-0.2 0-0.4-0.1-0.5-0.2-0.1-0.1-0.2-0.3-0.2-0.5z"/>
		<path id="Layer" fill-rule="evenodd" class="s3" d="m35.9 153q0-0.9 0.3-1.8c0.2-0.6 0.5-1 0.8-1.4 0.4-0.4 0.8-0.7 1.3-1 0.5-0.2 1.1-0.4 1.7-0.4 0.5 0 0.9 0.1 1.3 0.3 0.3 0.2 0.6 0.4 0.8 0.7 0.2 0.3 0.4 0.6 0.5 0.9 0.1 0.4 0.1 0.7 0.1 1.1 0 0.6-0.1 1.1-0.2 1.7-0.2 0.6-0.4 1.1-0.7 1.5-0.3 0.4-0.7 0.8-1.2 1.1-0.5 0.3-1.1 0.4-1.8 0.4-0.5 0-0.9-0.1-1.3-0.2-0.4-0.2-0.7-0.4-0.9-0.7-0.2-0.3-0.4-0.6-0.5-1-0.1-0.4-0.2-0.8-0.2-1.2zm1.1 0c0 0.4 0.1 0.7 0.2 1 0.1 0.3 0.2 0.6 0.4 0.8 0.2 0.2 0.4 0.4 0.6 0.5 0.2 0.1 0.5 0.2 0.8 0.2 0.5 0 0.9-0.1 1.3-0.4 0.3-0.3 0.6-0.6 0.8-1 0.2-0.4 0.4-0.8 0.4-1.3 0.1-0.5 0.1-1 0.1-1.4 0-0.4 0-0.7-0.1-1-0.1-0.3-0.2-0.5-0.4-0.8-0.2-0.3-0.4-0.4-0.6-0.5-0.2-0.1-0.5-0.2-0.8-0.2-0.5 0-0.9 0.1-1.2 0.4-0.3 0.3-0.6 0.6-0.9 1-0.3 0.4-0.4 0.8-0.5 1.3 0 0.5-0.1 1-0.1 1.4z"/>
		<path id="Layer" class="s3" d="m43.3 155.3c0-0.2 0.1-0.4 0.2-0.5 0.1-0.1 0.3-0.2 0.5-0.2 0.2 0 0.4 0.1 0.5 0.2 0.1 0.1 0.2 0.3 0.2 0.5 0 0.2-0.1 0.4-0.2 0.5-0.1 0.1-0.3 0.2-0.5 0.2-0.2 0-0.4-0.1-0.5-0.2-0.2-0.1-0.2-0.3-0.2-0.5z"/>
		<path id="Layer" fill-rule="evenodd" class="s3" d="m52.6 155c-0.1 0.1-0.2 0.3-0.3 0.4-0.1 0.1-0.3 0.2-0.4 0.3-0.2 0.1-0.3 0.2-0.5 0.2-0.2 0.1-0.4 0.1-0.7 0.1-0.6 0-1-0.2-1.3-0.5-0.3-0.3-0.5-0.8-0.5-1.4 0-0.5 0.1-1 0.2-1.4q0.2-0.6 0.6-1.2c0.3-0.4 0.6-0.6 0.9-0.8q0.6-0.3 1.2-0.3 0.5 0 0.9 0.3c0.2 0.2 0.4 0.4 0.4 0.8 0 0.5-0.2 0.9-0.7 1.2q-0.8 0.5-2.4 0.6c0 0.1 0 0.2-0.1 0.3-0.1 0.1 0 0.2 0 0.3 0 0.4 0.1 0.8 0.3 1 0.2 0.3 0.5 0.4 0.9 0.4 0.1 0 0.3 0 0.4-0.1 0.1-0.1 0.3-0.1 0.4-0.2 0.1-0.1 0.2-0.1 0.3-0.2 0.1-0.1 0.2-0.1 0.2-0.2zm-1.1-4c-0.3 0-0.6 0.1-0.8 0.4-0.3 0.3-0.5 0.7-0.7 1.4 0.7 0 1.2-0.1 1.6-0.3q0.6-0.3 0.6-0.9c0-0.1 0-0.3-0.1-0.4-0.1-0.1-0.3-0.2-0.6-0.2z"/>
		<path id="Layer" class="s3" d="m56.1 154.7c0-0.2-0.1-0.3-0.1-0.4q-0.2-0.1-0.3-0.3c-0.1-0.1-0.3-0.2-0.4-0.3-0.2-0.1-0.3-0.2-0.4-0.4-0.1-0.2-0.2-0.3-0.3-0.5-0.1-0.2-0.1-0.4-0.1-0.6 0-0.2 0-0.5 0.1-0.7 0.1-0.2 0.2-0.3 0.4-0.5 0.2-0.2 0.4-0.2 0.6-0.3 0.2-0.1 0.5-0.1 0.8-0.1q0.3 0 0.6 0c0.2 0 0.4 0.1 0.6 0.2q0 0.1 0 0.3c0 0.1-0.1 0.2-0.1 0.3 0 0.1-0.1 0.2-0.2 0.3-0.1 0.1-0.1 0.1-0.2 0.2l-0.8-0.8c-0.1 0-0.3 0-0.4 0.1-0.1 0-0.2 0.1-0.3 0.1-0.1 0.1-0.2 0.1-0.2 0.2-0.1 0.1-0.1 0.2-0.1 0.4 0 0.2 0 0.3 0.1 0.5 0.1 0.1 0.2 0.2 0.3 0.4 0.1 0.1 0.3 0.2 0.4 0.3 0.2 0.1 0.3 0.2 0.4 0.4 0.1 0.2 0.2 0.3 0.3 0.5 0.1 0.2 0.1 0.4 0.1 0.6 0 0.3-0.1 0.5-0.2 0.7-0.1 0.2-0.3 0.4-0.5 0.5-0.2 0.1-0.4 0.2-0.7 0.3-0.3 0.1-0.5 0.1-0.8 0.1-0.3 0-0.6 0-0.8-0.1-0.2-0.1-0.4-0.1-0.6-0.2 0-0.2 0.1-0.4 0.1-0.5 0-0.2 0.2-0.3 0.3-0.5l0.9 0.9c0.1 0 0.3 0 0.4-0.1 0.1 0 0.3-0.1 0.4-0.2q0.2-0.2 0.3-0.3c0.1-0.1 0.4-0.4 0.4-0.5z"/>
		<path id="Layer" fill-rule="evenodd" class="s3" d="m58.9 157.5c0.2 0 0.5 0.1 0.7 0.3v0.3h-1.6l-0.1-0.1 0.5-2.1 1-4.6-0.6-0.1v-0.3c0.2-0.1 0.5-0.2 0.7-0.3 0.3-0.1 0.5-0.1 0.7-0.1l0.2 0.1-0.4 1.8c0.1-0.3 0.3-0.5 0.4-0.8 0.2-0.2 0.3-0.4 0.5-0.6 0.2-0.2 0.4-0.3 0.6-0.4 0.2-0.1 0.4-0.2 0.7-0.2 0.2 0 0.3 0 0.4 0.1 0.1 0.1 0.3 0.2 0.4 0.3 0.1 0.1 0.2 0.3 0.2 0.5 0.1 0.2 0.1 0.4 0.1 0.6 0 0.5-0.1 1.1-0.2 1.5-0.2 0.5-0.4 0.9-0.7 1.3-0.3 0.4-0.6 0.7-1 0.9q-0.6 0.3-1.2 0.3-0.2 0-0.3 0c-0.1 0-0.2 0-0.2 0-0.1 0-0.1 0-0.2-0.1-0.1 0-0.1-0.1-0.2-0.1zm2.7-6.3c-0.2 0-0.4 0.1-0.6 0.2-0.2 0.2-0.4 0.3-0.5 0.6-0.2 0.2-0.3 0.5-0.4 0.7-0.1 0.2-0.2 0.5-0.3 0.7l-0.4 2c0.1 0.1 0.2 0.1 0.3 0.2 0.1 0 0.3 0.1 0.5 0.1 0.3 0 0.5-0.1 0.8-0.3 0.2-0.2 0.5-0.5 0.7-0.8 0.2-0.3 0.3-0.7 0.4-1.1 0.1-0.4 0.2-0.8 0.2-1.2 0-0.3-0.1-0.6-0.2-0.8-0.2-0.2-0.3-0.3-0.5-0.3z"/>
		<path id="Layer" fill-rule="evenodd" class="s3" d="m67.7 155c-0.1 0.1-0.2 0.3-0.3 0.4-0.1 0.1-0.3 0.2-0.4 0.3-0.2 0.1-0.3 0.2-0.5 0.2-0.2 0.1-0.4 0.1-0.7 0.1-0.6 0-1-0.2-1.3-0.5-0.3-0.3-0.5-0.8-0.5-1.4 0-0.5 0.1-1 0.2-1.4q0.2-0.6 0.6-1.2c0.3-0.4 0.6-0.6 0.9-0.8q0.6-0.3 1.2-0.3 0.5 0 0.9 0.3c0.2 0.2 0.4 0.4 0.4 0.8 0 0.5-0.2 0.9-0.7 1.2q-0.8 0.5-2.4 0.6c0 0.1 0 0.2-0.1 0.3-0.1 0.1 0 0.2 0 0.3 0 0.4 0.1 0.8 0.3 1 0.2 0.3 0.5 0.4 0.9 0.4 0.1 0 0.3 0 0.4-0.1 0.1-0.1 0.3-0.1 0.4-0.2 0.1-0.1 0.2-0.1 0.3-0.2 0.1-0.1 0.2-0.1 0.2-0.2zm-1.1-4c-0.3 0-0.6 0.1-0.8 0.4-0.3 0.3-0.5 0.7-0.7 1.4 0.7 0 1.2-0.1 1.6-0.3q0.6-0.3 0.6-0.9c0-0.1 0-0.3-0.1-0.4-0.1-0.1-0.3-0.2-0.6-0.2z"/>
		<path id="Layer" class="s3" d="m71.7 151.3c-0.2 0.1-0.4 0.2-0.6 0.5-0.2 0.3-0.4 0.7-0.6 1.1l-0.6 2.9h-0.9l1-4.6-0.6-0.1v-0.3c0.2-0.1 0.5-0.2 0.7-0.3 0.2-0.1 0.5-0.1 0.7-0.1l0.2 0.1-0.3 1.4c0.2-0.5 0.5-0.8 0.7-1.1 0.2-0.3 0.6-0.4 0.9-0.4q0.1 0 0.3 0c0.1 0 0.2 0.1 0.3 0.1 0 0.1 0 0.1 0 0.2 0 0.1-0.1 0.2-0.1 0.3 0 0.1-0.1 0.2-0.1 0.3 0 0.1-0.1 0.2-0.1 0.2z"/>
		<path id="Layer" class="s3" d="m73.2 150.9c0.1-0.1 0.3-0.2 0.4-0.2 0.2-0.1 0.3-0.1 0.5-0.2l0.2-0.8c0.1-0.1 0.2-0.1 0.3-0.2 0.1-0.1 0.3-0.1 0.4-0.2l0.2 0.1-0.3 1.2h1.3q0 0.2 0 0.3c0 0.1 0 0.2-0.1 0.3h-1.3l-0.7 3c0 0.1 0 0.2-0.1 0.3q0 0.2 0 0.3c0 0.2 0.1 0.3 0.2 0.4 0.1 0.1 0.2 0.1 0.3 0.1 0.2 0 0.4 0 0.6-0.1 0.2-0.1 0.4-0.1 0.6-0.2l0.1 0.2q-0.2 0.2-0.3 0.3c-0.1 0.1-0.3 0.2-0.4 0.3-0.2 0.1-0.3 0.1-0.5 0.2-0.2 0-0.3 0.1-0.5 0.1-0.3 0-0.5-0.1-0.7-0.2-0.2-0.1-0.3-0.4-0.3-0.6q0-0.1 0-0.3c0-0.1 0-0.2 0.1-0.4l0.7-3.3h-0.8z"/>
		<path id="Layer" fill-rule="evenodd" class="s3" d="m79.9 153.9c-0.1 0.3-0.2 0.5-0.3 0.8-0.1 0.3-0.3 0.5-0.5 0.7-0.2 0.2-0.4 0.4-0.6 0.5-0.2 0.1-0.4 0.2-0.7 0.2-0.7 0-1.1-0.5-1.1-1.6 0-0.5 0.1-1 0.2-1.4q0.1-0.8 0.6-1.2c0.3-0.4 0.6-0.7 1-0.9 0.4-0.2 0.8-0.3 1.3-0.3 0.2 0 0.3 0 0.4 0 0.1 0 0.2 0.1 0.4 0.1 0.3-0.1 0.6-0.2 0.9-0.2l-0.9 4.8h0.8v0.3c-0.1 0.1-0.3 0.2-0.5 0.3-0.2 0.1-0.4 0.1-0.6 0.1-0.2 0-0.3 0-0.4-0.1-0.1-0.1-0.1-0.2-0.1-0.3 0-0.1 0-0.3 0.1-0.6 0.1-0.3-0.1-0.8 0-1.2zm-1.7 1.5q0.3 0 0.6-0.3c0.2-0.2 0.4-0.4 0.5-0.6 0.2-0.3 0.3-0.5 0.5-0.8 0.1-0.3 0.2-0.5 0.3-0.7l0.3-1.8c-0.1-0.1-0.2-0.1-0.3-0.1-0.1 0-0.2 0-0.4 0q-0.4 0-0.9 0.3c-0.3 0.2-0.5 0.5-0.7 0.8-0.2 0.3-0.3 0.7-0.4 1-0.1 0.3-0.2 0.8-0.2 1.1 0 0.4 0 0.6 0.1 0.8q0.3 0.3 0.6 0.3z"/>
		<path id="Layer" class="s3" d="m85.3 151.2v-0.3c0.1 0 0.2-0.1 0.4-0.1 0.1 0 0.3-0.1 0.4-0.1 0.1 0 0.3-0.1 0.4-0.1q0.1 0 0.3 0l0.2 0.1-1 4.7h0.8v0.3c-0.1 0.1-0.3 0.2-0.5 0.3-0.2 0.1-0.4 0.1-0.6 0.1-0.2 0-0.3 0-0.4-0.1-0.1-0.1-0.1-0.2-0.1-0.3 0-0.1 0-0.3 0-0.4 0-0.1 0-0.3 0.1-0.4l0.7-3.4zm0.9-2.3c0-0.2 0.1-0.3 0.2-0.4 0.1-0.1 0.3-0.2 0.4-0.2 0.2 0 0.4 0.1 0.5 0.2 0.1 0.1 0.2 0.2 0.2 0.4 0 0.2-0.1 0.3-0.2 0.4-0.1 0.1-0.3 0.1-0.5 0.1-0.2 0-0.3 0-0.4-0.1-0.2-0.1-0.2-0.3-0.2-0.4z"/>
		<path id="Layer" class="s3" d="m91.6 152.9c0-0.2 0.1-0.4 0.1-0.6 0-0.2 0.1-0.4 0.1-0.6 0-0.2 0-0.3-0.1-0.4-0.1-0.1-0.2-0.2-0.4-0.2-0.2 0-0.4 0.1-0.6 0.2-0.2 0.2-0.4 0.3-0.5 0.6-0.1 0.3-0.3 0.4-0.5 0.7q-0.1 0.3-0.3 0.6l-0.6 2.7h-0.8l0.9-4.6-0.6-0.1v-0.3c0.1 0 0.2-0.1 0.3-0.1 0.1 0 0.2-0.1 0.4-0.1 0.1 0 0.3-0.1 0.4-0.1q0.1 0 0.3 0l0.2 0.1-0.4 1.9h0.1c0.1-0.3 0.3-0.5 0.5-0.8 0.2-0.2 0.4-0.5 0.5-0.6 0.2-0.2 0.4-0.3 0.6-0.4 0.2-0.1 0.4-0.2 0.6-0.2q0.5 0 0.6 0.3c0.1 0.2 0.2 0.4 0.2 0.7 0 0.2 0 0.3-0.1 0.6 0 0.2-0.1 0.4-0.1 0.7l-0.6 2.6h0.8v0.3c-0.1 0.1-0.3 0.2-0.5 0.3-0.2 0.1-0.4 0.1-0.6 0.1-0.2 0-0.3 0-0.4-0.1-0.1-0.1-0.1-0.2-0.1-0.3 0-0.1 0-0.3 0.1-0.4 0-0.2 0.1-0.3 0.1-0.5z"/>
		<path id="Layer" class="s3" d="m97.7 155.4c0.3 0 0.6 0.1 0.8 0.3l-0.1 0.3h-2.7l0.1-0.3c0.1-0.1 0.3-0.1 0.4-0.1 0.1 0 0.3-0.1 0.4-0.1l1.3-6.2c-0.1 0-0.3-0.1-0.4-0.1-0.1 0-0.2-0.1-0.3-0.1l0.1-0.3h4.9c-0.1 0.3-0.1 0.6-0.2 0.8q-0.2 0.4-0.3 0.9h-0.3l-0.2-1.2h-2.3l-0.6 3h1.8l0.6-0.8h0.3c0 0.3-0.1 0.7-0.2 1.1-0.1 0.4-0.2 0.7-0.3 1.1h-0.3l-0.2-0.8h-1.8z"/>
		<path id="Layer" fill-rule="evenodd" class="s3" d="m105.9 155c-0.1 0.1-0.2 0.3-0.3 0.4-0.1 0.1-0.3 0.2-0.4 0.3-0.2 0.1-0.3 0.2-0.5 0.2-0.2 0.1-0.4 0.1-0.7 0.1-0.6 0-1-0.2-1.3-0.5-0.3-0.3-0.5-0.8-0.5-1.4 0-0.5 0.1-1 0.2-1.4q0.1-0.6 0.6-1.2c0.3-0.4 0.6-0.6 0.9-0.8q0.6-0.3 1.2-0.3 0.4 0 0.9 0.3c0.2 0.2 0.4 0.4 0.4 0.8 0 0.5-0.2 0.9-0.7 1.2q-0.8 0.5-2.4 0.6c0 0.1 0 0.2-0.1 0.3-0.1 0.1 0 0.2 0 0.3 0 0.4 0.1 0.8 0.3 1 0.2 0.3 0.5 0.4 0.9 0.4 0.1 0 0.3 0 0.4-0.1 0.1-0.1 0.3-0.1 0.4-0.2 0.1-0.1 0.2-0.1 0.3-0.2 0.1-0.1 0.2-0.1 0.2-0.2zm-1.1-4c-0.3 0-0.6 0.1-0.8 0.4-0.3 0.3-0.5 0.7-0.7 1.4 0.7 0 1.2-0.1 1.6-0.3q0.6-0.3 0.6-0.9c0-0.1 0-0.3-0.1-0.4-0.1-0.1-0.4-0.2-0.6-0.2z"/>
		<path id="Layer" class="s3" d="m109.8 151.3c-0.2 0.1-0.4 0.2-0.6 0.5-0.2 0.3-0.4 0.7-0.6 1.1l-0.6 2.9h-0.9l1-4.6-0.6-0.1v-0.3c0.2-0.1 0.5-0.2 0.7-0.3 0.2-0.1 0.5-0.1 0.7-0.1l0.2 0.1-0.3 1.4c0.2-0.5 0.5-0.8 0.7-1.1 0.2-0.3 0.6-0.4 0.9-0.4q0.1 0 0.3 0c0.1 0 0.2 0.1 0.3 0.1 0 0.1 0 0.1 0 0.2 0 0.1-0.1 0.2-0.1 0.3 0 0.1-0.1 0.2-0.1 0.3 0 0.1-0.1 0.2-0.1 0.2z"/>
		<path id="Layer" class="s3" d="m111.3 150.9c0.1-0.1 0.3-0.2 0.4-0.2 0.2-0.1 0.3-0.1 0.5-0.2l0.2-0.8c0.1-0.1 0.2-0.1 0.3-0.2 0.1-0.1 0.3-0.1 0.4-0.2l0.2 0.1-0.3 1.2h1.3q0 0.2 0 0.3c0 0.1 0 0.2-0.1 0.3h-1.2l-0.7 3c0 0.1 0 0.2-0.1 0.3q0 0.2 0 0.3c0 0.2 0.1 0.3 0.2 0.4 0.1 0.1 0.2 0.1 0.3 0.1 0.2 0 0.4 0 0.6-0.1 0.2-0.1 0.4-0.1 0.6-0.2l0.1 0.2q-0.1 0.2-0.3 0.3c-0.1 0.1-0.3 0.2-0.4 0.3-0.2 0.1-0.3 0.1-0.5 0.2-0.2 0-0.3 0.1-0.5 0.1-0.3 0-0.5-0.1-0.7-0.2-0.2-0.1-0.3-0.4-0.3-0.6q0-0.1 0-0.3c0-0.1 0-0.2 0.1-0.4l0.7-3.3h-0.8z"/>
		<path id="Layer" class="s3" d="m115.1 151.2v-0.3c0.1 0 0.2-0.1 0.4-0.1 0.1 0 0.3-0.1 0.4-0.1 0.1 0 0.3-0.1 0.4-0.1q0.1 0 0.3 0l0.2 0.1-1 4.7h0.8v0.3c-0.1 0.1-0.3 0.2-0.5 0.3-0.2 0.1-0.4 0.1-0.6 0.1-0.2 0-0.3 0-0.4-0.1-0.1-0.1-0.1-0.2-0.1-0.3 0-0.1 0-0.3 0-0.4 0-0.1 0-0.3 0.1-0.4l0.7-3.4zm0.9-2.3c0-0.2 0.1-0.3 0.2-0.4 0.1-0.1 0.3-0.2 0.4-0.2 0.2 0 0.4 0.1 0.5 0.2 0.1 0.1 0.2 0.2 0.2 0.4 0 0.2-0.1 0.3-0.2 0.4-0.1 0.1-0.3 0.1-0.5 0.1-0.2 0-0.3 0-0.4-0.1-0.2-0.1-0.2-0.3-0.2-0.4z"/>
		<path id="Layer" class="s3" d="m119.2 148.8l-0.7-0.1v-0.3c0.1 0 0.2-0.1 0.3-0.1 0.1 0 0.3-0.1 0.4-0.1 0.1 0 0.3-0.1 0.4-0.1 0.1 0 0.3 0 0.4 0l0.2 0.1-1.4 7.2h0.8v0.3c-0.1 0.1-0.3 0.2-0.5 0.3-0.2 0.1-0.4 0.1-0.6 0.1-0.2 0-0.4 0-0.4-0.1 0-0.1-0.1-0.2-0.1-0.3 0-0.1 0-0.3 0-0.4 0-0.1 0-0.3 0.1-0.4z"/>
		<path id="Layer" class="s3" d="m121.1 151.2v-0.3c0.1 0 0.2-0.1 0.4-0.1 0.1 0 0.3-0.1 0.4-0.1 0.1 0 0.3-0.1 0.4-0.1q0.1 0 0.3 0l0.2 0.1-1 4.7h0.8v0.3c-0.1 0.1-0.3 0.2-0.5 0.3-0.2 0.1-0.4 0.1-0.6 0.1-0.2 0-0.3 0-0.4-0.1-0.1-0.1-0.1-0.2-0.1-0.3 0-0.1 0-0.3 0-0.4 0-0.1 0-0.3 0.1-0.4l0.7-3.4zm0.8-2.3c0-0.2 0.1-0.3 0.2-0.4 0.1-0.1 0.3-0.2 0.4-0.2 0.2 0 0.4 0.1 0.5 0.2 0.1 0.1 0.2 0.2 0.2 0.4 0 0.2-0.1 0.3-0.2 0.4-0.1 0.1-0.3 0.1-0.5 0.1-0.2 0-0.3 0-0.4-0.1-0.1-0.1-0.2-0.3-0.2-0.4z"/>
		<path id="Layer" class="s3" d="m123.9 150.9c0.1-0.1 0.3-0.2 0.4-0.2 0.2-0.1 0.3-0.1 0.5-0.2l0.2-0.8c0.1-0.1 0.2-0.1 0.3-0.2 0.1-0.1 0.3-0.1 0.4-0.2l0.2 0.1-0.3 1.2h1.3q0 0.2 0 0.3c0 0.1 0 0.2-0.1 0.3h-1.3l-0.7 3c0 0.1 0 0.2-0.1 0.3q0 0.2 0 0.3c0 0.2 0.1 0.3 0.2 0.4 0.1 0.1 0.2 0.1 0.3 0.1 0.2 0 0.4 0 0.6-0.1 0.2-0.1 0.4-0.1 0.6-0.2l0.1 0.2q-0.2 0.2-0.3 0.3c-0.1 0.1-0.3 0.2-0.4 0.3-0.2 0.1-0.3 0.1-0.5 0.2-0.2 0-0.3 0.1-0.5 0.1-0.3 0-0.5-0.1-0.7-0.2-0.2-0.1-0.3-0.4-0.3-0.6q0-0.1 0-0.3c0-0.1 0-0.2 0.1-0.4l0.7-3.3h-0.8z"/>
		<path id="Layer" fill-rule="evenodd" class="s3" d="m130.6 153.9c-0.1 0.3-0.2 0.5-0.3 0.8-0.1 0.3-0.3 0.5-0.5 0.7-0.2 0.2-0.4 0.4-0.6 0.5-0.2 0.1-0.4 0.2-0.7 0.2-0.7 0-1.1-0.5-1.1-1.6 0-0.5 0.1-1 0.2-1.4q0.1-0.8 0.6-1.2c0.3-0.4 0.6-0.7 1-0.9 0.4-0.2 0.8-0.3 1.3-0.3 0.2 0 0.3 0 0.4 0 0.1 0 0.2 0.1 0.4 0.1 0.3-0.1 0.6-0.2 0.9-0.2l-0.9 4.8h0.8v0.3c-0.1 0.1-0.3 0.2-0.5 0.3-0.2 0.1-0.4 0.1-0.6 0.1-0.2 0-0.3 0-0.4-0.1-0.1-0.1-0.1-0.2-0.1-0.3 0-0.1 0-0.3 0.1-0.6 0.1-0.3 0-0.8 0-1.2zm-1.6 1.5q0.3 0 0.6-0.3c0.2-0.2 0.4-0.4 0.5-0.6 0.2-0.3 0.3-0.5 0.5-0.8 0.1-0.3 0.2-0.5 0.3-0.7l0.3-1.8c-0.1-0.1-0.2-0.1-0.3-0.1-0.1 0-0.2 0-0.4 0q-0.4 0-0.9 0.3c-0.3 0.2-0.5 0.5-0.7 0.8-0.2 0.3-0.3 0.7-0.4 1-0.1 0.3-0.2 0.8-0.2 1.1 0 0.4 0 0.6 0.1 0.8 0.2 0.2 0.3 0.3 0.6 0.3zm1.9-5.7l-0.2 0.2-1.7-1.6v-0.2c0 0 0.1-0.1 0.2-0.1 0.1 0 0.2-0.1 0.3-0.1q0.2 0 0.3 0c0.1 0 0.2 0 0.2 0z"/>
	</g>
	<g id="Layer">
		<g id="Layer">
			<path id="Layer" fill-rule="evenodd" class="s4" d="m45.7 120.6c0 1.6-1.3 2.8-2.9 2.8h-2v-5.5h2c1.6-0.1 2.9 1.1 2.9 2.7zm-0.7 0c0-1.6-0.9-2.6-2.3-2.6h-1.2v5.2h1.2c1.3 0 2.3-1.1 2.3-2.6z"/>
			<path id="Layer" fill-rule="evenodd" class="s4" d="m46.5 121.4c0-1.2 0.9-2 2.1-2 1.2 0 2.1 0.9 2.1 2 0 1.1-0.9 2-2.1 2-1.2 0-2.1-0.9-2.1-2zm3.4 0c0-1.2-0.5-1.9-1.3-1.9-0.8 0-1.3 0.7-1.3 1.9 0 1.2 0.5 1.9 1.3 1.9 0.8-0.1 1.3-0.8 1.3-1.9z"/>
			<path id="Layer" class="s4" d="m53.9 122.9c-0.1 0.3-0.5 0.5-1 0.5-0.6 0-1.1-0.4-1.1-1v-2.9h-0.5v-0.2h0.5v-0.9l0.7-0.2v1.1h1.2v0.2h-1.2v3c0 0.4 0.3 0.7 0.6 0.7 0.3 0 0.6-0.2 0.7-0.4z"/>
			<path id="Layer" class="s4" d="m56.8 122.9c-0.1 0.3-0.5 0.5-1 0.5-0.6 0-1.1-0.4-1.1-1v-2.9h-0.5v-0.2h0.5v-0.9l0.7-0.2v1.1h1.2v0.2h-1.2v3c0 0.4 0.3 0.7 0.6 0.7 0.3 0 0.6-0.2 0.7-0.4z"/>
			<path id="Layer" class="s4" d="m57.3 122.9c0-0.3 0.2-0.5 0.5-0.5 0.3 0 0.5 0.2 0.5 0.5 0 0.3-0.2 0.5-0.5 0.5-0.3 0-0.5-0.2-0.5-0.5z"/>
			<path id="Layer" class="s4" d="m62.1 122.3c0 0.7-0.6 1.1-1.5 1.1-0.8 0-1.5-0.4-1.5-0.9 0-0.2 0.2-0.4 0.4-0.4 0.2 0 0.4 0.2 0.4 0.4 0 0.2-0.1 0.4-0.3 0.4 0.2 0.2 0.6 0.3 1 0.3 0.6 0 1.1-0.3 1.1-0.7 0-0.4-0.5-0.6-1.1-0.9-0.6-0.2-1.3-0.5-1.3-1.3 0-0.7 0.6-1.1 1.5-1.1 0.7 0 1.3 0.3 1.4 0.8 0 0.2-0.2 0.4-0.4 0.4-0.2 0-0.4-0.2-0.4-0.4 0-0.2 0.1-0.3 0.3-0.4-0.2-0.1-0.5-0.2-0.9-0.2-0.6 0-1 0.3-1 0.7 0 0.4 0.5 0.7 1.1 0.9 0.5 0.3 1.2 0.6 1.2 1.3z"/>
			<path id="Layer" class="s4" d="m65.8 122.3c0 0.7-0.6 1.1-1.5 1.1-0.8 0-1.5-0.4-1.5-0.9 0-0.2 0.2-0.4 0.4-0.4 0.2 0 0.4 0.2 0.4 0.4 0 0.2-0.1 0.4-0.3 0.4 0.2 0.2 0.6 0.3 1 0.3 0.6 0 1.1-0.3 1.1-0.7 0-0.4-0.5-0.6-1.1-0.9-0.6-0.2-1.3-0.5-1.3-1.3 0-0.7 0.6-1.1 1.5-1.1 0.7 0 1.3 0.3 1.4 0.8 0 0.2-0.2 0.4-0.4 0.4-0.2 0-0.4-0.2-0.4-0.4 0-0.2 0.1-0.3 0.3-0.4-0.2-0.1-0.5-0.2-0.9-0.2-0.6 0-1 0.3-1 0.7 0 0.4 0.5 0.7 1.1 0.9 0.5 0.3 1.2 0.6 1.2 1.3z"/>
			<path id="Layer" fill-rule="evenodd" class="s4" d="m70.1 120.7v2.6h-0.7v-0.6c-0.3 0.4-0.9 0.7-1.5 0.7-0.8 0-1.4-0.5-1.4-1.1 0-0.7 0.7-1.1 1.7-1.1 0.5 0 1 0.1 1.2 0.3v-0.9c0-0.6-0.5-1-1.2-1-0.4 0-0.8 0.1-1 0.4 0.2 0 0.4 0.2 0.4 0.4 0 0.2-0.2 0.4-0.4 0.4-0.2 0-0.4-0.2-0.4-0.4 0-0.5 0.7-0.9 1.6-0.9 1-0.2 1.7 0.4 1.7 1.2zm-0.7 1.8v-0.9c-0.2-0.1-0.6-0.3-1-0.3-0.7 0-1.1 0.3-1.1 0.9 0 0.5 0.4 0.9 0.9 0.9 0.5 0 1-0.2 1.2-0.6z"/>
		</g>
	</g>
	<g id="Layer">
		<path id="Layer" class="s4" d="m-11.7 139.7c-0.8 1.5-2.9 2.7-5.4 2.7-4.1 0-7.2-3-7.2-7 0-3.9 3-7 7.2-7 3 0 5.3 1.6 5.3 3.5 0 0.6-0.4 1-1 1-0.6 0-1.1-0.4-1.1-1 0-0.6 0.4-1 1.1-1 0.1 0 0.1 0 0.2 0-0.5-1.2-2-2-4-2-3.5 0-5.8 2.6-5.8 6.5 0 4 2.3 6.6 5.7 6.6 2.1 0 3.8-1 4.7-2.5z"/>
		<path id="Layer" class="s4" d="m1.4 141.8v0.4h-9.1v-13.7h1.7v13.3z"/>
		<path id="Layer" fill-rule="evenodd" class="s4" d="m13 138.2h-6.8l-1.8 4h-0.5l6-13.7h0.8l6 13.7h-1.8zm-0.2-0.4l-3.2-7.4-3.3 7.4z"/>
		<path id="Layer" class="s4" d="m20 136.8v-8.2h1.7v8.6c0 2.8 1.9 4.7 4.6 4.7 2.7 0 4.5-1.8 4.5-4.7v-8.6h0.5v8.6c0 3.2-2 5.3-5.4 5.3-3.5-0.1-5.9-2.3-5.9-5.7z"/>
		<path id="Layer" fill-rule="evenodd" class="s4" d="m48.4 135.4c0 3.9-3.1 6.8-7.3 6.8h-5.1v-13.7h5.1c4.2 0.1 7.3 3 7.3 6.9zm-1.8 0c0-3.9-2.3-6.4-5.7-6.4h-3.1v12.9h3.1c3.4-0.1 5.7-2.6 5.7-6.5z"/>
		<path id="Layer" class="s4" d="m52.4 128.6h1.7v13.7h-1.7z"/>
		<path id="Layer" fill-rule="evenodd" class="s4" d="m66.9 138.2h-6.9l-1.8 4h-0.5l6-13.7h0.8l6 13.7h-1.8zm-0.2-0.4l-3.2-7.4-3.3 7.4z"/>
		<path id="Layer" class="s4" d="m92.4 136.4v5.8h-0.2l-1.1-1.4c-0.8 1-2.4 1.6-4.3 1.6-4.1 0-7.3-3-7.3-7 0-4 3.1-7 7.4-7 2.9 0 5.2 1.4 5.2 3.3 0 0.6-0.4 1-1 1-0.6 0-1.1-0.4-1.1-1 0-0.6 0.4-1 1.1-1 0.1 0 0.1 0 0.2 0-0.5-1.2-2-1.9-3.9-1.9-3.7 0-6 2.6-6 6.6 0 4 2.2 6.6 5.6 6.6 1.9 0 3.2-0.7 3.8-1.9v-3.7z"/>
		<path id="Layer" class="s4" d="m96.9 128.6h1.7v13.7h-1.7z"/>
		<path id="Layer" class="s4" d="m113.1 128.9l-8.6 12.9h8.5v0.4h-10.5v-0.3l8.6-12.9h-8.3v-0.4h10.2v0.3z"/>
		<path id="Layer" class="s4" d="m126.6 128.9l-8.6 12.9h8.5v0.4h-10.5v-0.3l8.6-12.9h-8.3v-0.4h10.2v0.3z"/>
		<path id="Layer" class="s4" d="m130.6 128.6h1.7v13.7h-1.7z"/>
	</g>
</svg>