<?xml version="1.0" encoding="utf-8"?>
<!-- Generator: Adobe Illustrator 27.1.1, SVG Export Plug-In . SVG Version: 6.00 Build 0)  -->
<svg version="1.1" id="Layer_1" xmlns="http://www.w3.org/2000/svg" xmlns:xlink="http://www.w3.org/1999/xlink" x="0px" y="0px"
	 viewBox="0 0 595.3 841.9" style="enable-background:new 0 0 595.3 841.9;" xml:space="preserve">
<style type="text/css">
	.st0{fill:none;}
	.st1{fill-rule:evenodd;clip-rule:evenodd;fill:#F5C3C2;}
	.st2{fill-rule:evenodd;clip-rule:evenodd;fill:#C9DDDD;}
	.st3{fill-rule:evenodd;clip-rule:evenodd;fill:#F6D5C2;}
	.st4{fill-rule:evenodd;clip-rule:evenodd;}
</style>
<rect x="223" y="346.6" class="st0" width="155.2" height="150"/>
<path class="st1" d="M324.1,414.2c4.5-4.9,9.3-17.2,13.9-25.1c3.4-5.8,6.1-11.9,4.8-18c-2.4-11.7-10.6-19.8-21.7-23.2
	c-10-3-17-1.4-23,6.4c-5.2,6.6-8.5,14.6-4.5,25.2c4.4,11.6,6.8,16.9,7,29C300.9,423.1,315.7,423.5,324.1,414.2z"/>
<path class="st2" d="M231.5,350.6c4.7-2.7,16-5.9,28.1-2.9c11.8,2.9,10.7,13.6,2.2,18.5c-5.2,3.1-14.4,6.1-20.3,8.4
	C222.3,381.9,216.3,359.2,231.5,350.6z"/>
<path class="st3" d="M373.8,351.1c3.3,3.9,5.7,7.5,4.2,12.7c-1.4,5.1-4.3,8.9-9.7,9.4c-4.9,0.4-9.6-1.2-9.1-7.1
	c0.2-2.8,1-9.4,2.4-13.3C363.6,346.9,370.1,346.7,373.8,351.1z"/>
<path class="st4" d="M266.6,376.5c-5.7,0.1-13.6,5.5-19.1,7.9c-7,3.1-14.9,3.1-18.4-4.9c-2.6-6-2-13.6,1.3-19.2
	c2-3.5,5.2-6.5,9.7-8.5c6.8-3,14.5-3.5,21.2,0.2c6.9,3.7,10.8,10.7,12.1,18.2c1.7,9.5,3.2,16.6,5.8,22.9c2.6,6.2,6.3,11.6,12.4,17.6
	c6.1,6,9.8,10.1,8.1,19.1c-1.3,6.9,7.7,7.4,6.3-0.2c-1.4-7.8,1.1-13.5,6.9-18.8c4.5-4,8.6-8.9,12-15.9c3-6.2,5.5-14.1,7-24.4
	c-2,3.9-3.8,7.9-6,11.7c-5,8.6-10.6,13.9-16.1,16.4c-8.4,3.8-16.4,1-22-5.9c-4.6-5.7-7.8-14.4-8.4-25.2c-0.2-3.3,0.2-6,1.3-8
	c1.2-2.2,3.1-3.5,5.7-3.7c2.1-0.1,4.6,0.5,7.4,2c9.6,5.1,16.7,6.3,25.8,0c2.2-1.5,4.3-2.4,6.2-2.7c3.8-0.5,6.8,1.3,8.1,4.9
	c0.3,0.7,0.5,1.5,0.6,2.3c0.4-0.7,0.9-1.4,1.4-2c3.8-5.3,9.4-8.6,15.3-9.6c6.1-1.1,12.7,0.1,18.3,3.5c6.6,4.1,9.6,12.4,8.6,19.9
	c-1.5,11.6-11.9,15.5-21.6,9.5c-5.4-3.4-11.4-6.1-17.8-7.2l0.3-1.9c6.6,1.2,12.8,4,18.4,7.5c8.5,5.3,17.3,2.1,18.7-8.1
	c0.9-6.7-1.7-14.3-7.7-18c-5.2-3.2-11.3-4.3-17-3.3c-5.5,1-10.6,4-14.1,8.9c-1,1.4-2,2.9-2.8,4.4c0,0.3-0.1,0.6-0.1,1
	c-1.5,12.6-4.2,21.8-7.7,29c-3.5,7.2-7.8,12.3-12.4,16.5c-5.3,4.9-7.7,9.9-6.3,17c1.9,10.6-12,10.1-10.1,0.2
	c1.6-8.3-1.9-11.9-7.6-17.4c-6.4-6.2-10.2-11.8-12.9-18.2c-2.7-6.4-4.2-13.7-5.9-23.3c-1.2-6.9-4.8-13.4-11.1-16.9
	c-6.2-3.3-13.3-2.8-19.5-0.1c-4.1,1.8-7,4.5-8.8,7.7c-3,5.1-3.5,12-1.2,17.4c3.1,7,9.8,6.6,15.9,3.9c5.9-2.6,13.6-8,19.9-8.1
	L266.6,376.5L266.6,376.5z M332.6,365.2c0.1-1.8-0.1-3.4-0.6-4.6c-1-2.7-3.1-4-6-3.6c-1.6,0.2-3.4,1-5.4,2.3
	c-9.7,6.7-17.5,5.5-27.8,0.1c-2.5-1.3-4.7-1.9-6.4-1.8c-1.9,0.1-3.2,1-4.1,2.7c-0.9,1.7-1.2,4-1.1,7c0.6,10.5,3.6,18.8,8,24.1
	c5.1,6.2,12.2,8.8,19.8,5.4c5.2-2.3,10.5-7.4,15.2-15.6C327.3,376,329.6,370.4,332.6,365.2z"/>
<g>
	<path d="M363.1,392.3l-0.9-1.2c-0.1-0.2-0.3-0.2-0.5-0.2c-0.1,0-0.1,0-0.2,0c-0.2,0.1-0.4,0.3-0.4,0.6l0.1,1.5c0.1,1,0.2,2,0.3,3.1
		c0.2,2.4,0.5,4.9,0.3,7.3c-0.4,7.8-2.9,15.6-7.5,23.2c-4.8,8-10.2,13.3-16.8,16.7c-0.7,0.3-1.3,0.5-1.8,0.5c-0.7,0-1.2-0.3-1.5-0.8
		c-0.6-0.9-0.3-1.3,0.9-2.6l0.1-0.1c3.8-4.2,8.2-9.3,10.9-15.4c2.8-6.1,2.2-12.1-1.9-18.3l-0.4-0.6c-0.1-0.2-0.3-0.3-0.5-0.3
		c0,0,0,0,0,0c-0.2,0-0.4,0.1-0.5,0.3l-1.1,2.1c-0.5,0.9-0.9,1.7-1.3,2.4c-4,7-10.6,11.8-16.3,16c-3.1,2.2-6.6,4.9-9.6,8
		c-10,10.2-13.1,21.9-9.3,35c2.8,9.6,8.4,17.9,17,25.6c0.4,0.4,0.8,0.6,1.3,0.9c0.2,0.1,0.4,0.2,0.6,0.4l0.6,0.4
		c0.1,0.1,0.2,0.1,0.3,0.1c0.1,0,0.1,0,0.2,0c0.2-0.1,0.3-0.2,0.3-0.4l0.1-0.7c2.3-12.8,3.9-15.9,13.1-25.6c1-1,2-2.1,3.1-3.1
		c0.9-0.9,1.8-1.8,2.7-2.7c2-2.1,4-4.1,6-6.1c4.6-4.6,9.4-9.4,13.6-14.6C376.4,428.1,376,410.4,363.1,392.3z M340.8,465.8l-0.5-0.3
		c-1,1-2.1,2-3.1,3.1c-9.1,9.6-11.1,13.3-13.3,25.1c-0.1-0.1-0.3-0.2-0.4-0.3c-8.4-7.4-13.7-15.5-16.4-24.7
		c-3.6-12.3-0.6-23.4,8.8-33c2.9-3,6.4-5.6,9.4-7.8c5.9-4.3,12.6-9.3,16.8-16.6c0.4-0.8,0.8-1.5,1.3-2.4c2.8,5.1,3.1,10,0.8,14.9
		c-2.7,5.9-6.8,10.8-10.6,14.9l-0.1,0.1c-1.1,1.2-2.6,2.8-1.1,5.1c0.7,1.1,1.8,1.7,3.2,1.7c0.9,0,1.8-0.3,2.8-0.8
		c6.9-3.6,12.5-9.1,17.5-17.4c4.8-7.9,7.4-16,7.8-24.1c0.1-2.3-0.1-4.6-0.3-6.8c10.3,16.2,10,31.9-1,45.6
		c-4.1,5.1-8.8,9.8-13.4,14.4c-1.9,1.9-4,4-6,6.1c-0.9,0.9-1.8,1.8-2.7,2.7L340.8,465.8L340.8,465.8z"/>
	<path d="M286.5,433.8c-2.8-2.8-6-5.1-9.1-7.4c0,0-1.3-0.9-1.8-1.3c-5.3-4-10.9-8.4-14.5-14.8c-0.4-0.8-0.9-1.5-1.4-2.5l-1.3-2.4
		c-0.1-0.2-0.3-0.3-0.5-0.3c0,0,0,0,0,0c-0.2,0-0.4,0.1-0.5,0.3l-0.3,0.8c-0.3,0.8-0.7,1.6-1,2.3c-0.7,1.5-1.3,2.9-1.7,4.4
		c-1.4,5-0.4,10.2,3.1,15.4c1.7,2.5,3.6,4.8,5.4,7.1c1.3,1.6,2.6,3.2,3.8,4.9c0.5,0.7,0.8,1.8,0.6,2.4c-0.1,0.2-0.2,0.8-1.3,0.8
		c-0.3,0-0.6,0-0.9-0.1c-0.8-0.2-1.7-0.6-2.5-1.2c-12.7-8.3-20.3-20.6-22.6-36.6c-0.4-3-0.3-6-0.1-9.1c0.1-1.4,0.1-2.6,0.1-3.9
		l0-1.4c0-0.2-0.2-0.5-0.4-0.5c-0.1,0-0.1,0-0.2,0c-0.2,0-0.4,0.1-0.5,0.2l-0.8,1.2c-3.7,5.5-6.5,11.2-8.2,17
		c-1.5,5-1.8,10.1-1.2,15c1.2,8.8,5.4,16.7,13.1,24.9c3.7,3.9,7.5,7.6,11.3,11.3c2.9,2.8,5.8,5.7,8.7,8.6c6.9,7,13.6,14.9,13.7,26.3
		l0,0.7c0,0.2,0.1,0.4,0.3,0.5c0.1,0.1,0.2,0.1,0.3,0.1c0.1,0,0.2,0,0.3-0.1l0.6-0.4c0.2-0.1,0.4-0.2,0.5-0.3
		c0.3-0.2,0.5-0.3,0.7-0.4c0.6-0.5,1.2-0.9,1.7-1.4c5.6-5,10.1-10.9,13.3-17.4C301.3,461,298.9,446.1,286.5,433.8z M237.9,396.5
		c0,0.1,0,0.1,0,0.2c-0.2,3.1-0.3,6.3,0.1,9.4c2.4,16.6,10.3,29.4,23.5,38c1,0.6,2,1.1,3,1.4c0.5,0.1,1,0.2,1.4,0.2
		c1.6,0,2.8-0.8,3.2-2.3c0.4-1.3-0.2-3.1-0.9-4.1c-1.3-1.7-2.6-3.4-3.9-5c-1.8-2.3-3.7-4.6-5.3-7c-3.2-4.8-4.2-9.3-2.9-13.8
		c0.4-1.4,1-2.6,1.6-4.1c0.1-0.1,0.1-0.3,0.2-0.4c0.5,0.8,0.8,1.5,1.2,2.3c3.8,6.7,9.5,11.2,15,15.4l1.8,1.3
		c3.1,2.3,6.2,4.6,8.9,7.3c11.7,11.6,14,25.7,6.6,40.7c-3.1,6.3-7.5,12-12.9,16.8c-0.4,0.3-0.7,0.6-1.1,0.9
		c-0.7-11.2-7.4-19-14.2-25.9c-2.9-3-5.9-5.9-8.8-8.7c-3.7-3.6-7.6-7.4-11.2-11.2c-7.5-7.9-11.5-15.4-12.6-23.8
		c-0.6-4.6-0.3-9.4,1.1-14.2C233.3,405.4,235.3,400.9,237.9,396.5z"/>
</g>
</svg>
